<svg width="24" height="24" viewBox="0 0 24 24" fill="none" xmlns="http://www.w3.org/2000/svg">
<path d="M6.88675 3.24609C6.68753 3.32812 6.65238 3.42578 6.64066 3.91797L6.62503 4.38281H5.67972C4.63284 4.38281 4.44925 4.41016 4.04691 4.625C3.75394 4.78125 3.36331 5.19141 3.21878 5.49609C2.99222 5.97266 3.00003 5.75781 3.00003 11.7852C3.00003 16.5195 3.01175 17.3711 3.05863 17.6055C3.21488 18.3398 3.74222 18.9062 4.4766 19.1328C4.62894 19.1758 5.30472 19.1875 8.51956 19.1875H12.3789L12.4961 19.4492C12.8946 20.3398 13.6602 21.1133 14.5821 21.5547C15.8164 22.1484 17.1758 22.1484 18.4102 21.5547C19.6055 20.9805 20.4102 19.9922 20.7852 18.6406C20.8555 18.3906 20.8672 18.2383 20.8672 17.5859C20.8672 16.9297 20.8555 16.7812 20.7813 16.5234C20.3399 14.9258 19.1993 13.7617 17.668 13.3477L17.3555 13.2617L17.336 9.61328C17.3164 5.98438 17.3164 5.96484 17.2305 5.74219C16.9766 5.07812 16.4766 4.60938 15.8321 4.44141C15.6563 4.39844 15.3789 4.38281 14.6563 4.38281H13.711L13.6953 3.91016L13.6836 3.4375L13.5547 3.32422C13.4102 3.19531 13.2539 3.17969 13.0782 3.26953C13.0157 3.30078 12.9453 3.36328 12.9219 3.40234C12.9024 3.44531 12.8828 3.68359 12.8828 3.92969V4.38281H10.1875H7.49222V3.98047C7.49222 3.67969 7.47659 3.55078 7.42191 3.44531C7.32034 3.24219 7.10159 3.16016 6.88675 3.24609ZM6.63284 5.59375C6.63284 6.05078 6.68753 6.22266 6.86331 6.3125C7.01175 6.39062 7.11331 6.39062 7.25784 6.31641C7.44534 6.21875 7.49222 6.07812 7.49222 5.61328V5.20312H10.1875H12.8828V5.65234C12.8828 6.15234 12.918 6.25391 13.1172 6.33594C13.2852 6.40625 13.4844 6.35547 13.6016 6.21484C13.6993 6.10156 13.7032 6.07031 13.7032 5.64844V5.20312H14.543C15 5.20312 15.4649 5.22266 15.5743 5.24609C15.9453 5.32422 16.2891 5.63281 16.4336 6.01562C16.4649 6.10156 16.4922 6.40234 16.5039 6.75391L16.5274 7.35156H10.1914H3.85941V6.76562C3.85941 6.27344 3.87113 6.14844 3.94144 5.96484C4.06644 5.625 4.41019 5.32812 4.77738 5.23828C4.84378 5.22266 5.28519 5.21094 5.76566 5.20703L6.63284 5.20312V5.59375ZM16.4766 10.668V13.168L16.293 13.1875C15.4258 13.293 15.0664 13.3867 14.543 13.6523C14.1055 13.8711 13.8164 14.0742 13.461 14.4141C12.5118 15.3203 12.0586 16.4727 12.1133 17.8281L12.1328 18.3672H8.48441C4.92972 18.3672 4.83206 18.3672 4.62894 18.2891C4.3555 18.1875 4.14066 17.9961 3.99613 17.7383L3.87894 17.5273L3.86722 12.8477L3.85941 8.17188H10.168H16.4766V10.668ZM17.086 14.0742C18.4727 14.3164 19.5821 15.3359 19.961 16.707C20.0821 17.1562 20.0821 18.0156 19.961 18.4648C19.8008 19.0508 19.4961 19.6016 19.0977 20.0234C17.8985 21.2891 16.0235 21.5234 14.5782 20.5859C13.7618 20.0586 13.211 19.2539 12.9961 18.2695C12.9258 17.9453 12.9336 17.1641 13.0118 16.8359C13.3555 15.418 14.3946 14.3984 15.8164 14.0898C16.1211 14.0273 16.7696 14.0156 17.086 14.0742Z" fill="#075EF5"/>
<path d="M16.4766 10.668V13.168L16.293 13.1875C15.4258 13.293 15.0664 13.3867 14.543 13.6523C14.1055 13.8711 13.8164 14.0742 13.461 14.4141C12.5118 15.3203 12.0586 16.4727 12.1133 17.8281L12.1328 18.3672H8.48441C4.92972 18.3672 4.83206 18.3672 4.62894 18.2891C4.3555 18.1875 4.14066 17.9961 3.99613 17.7383L3.87894 17.5273L3.86722 12.8477L3.85941 8.17188H10.168H16.4766V10.668Z" fill="#075EF5"/>
<path d="M6.63284 5.59375C6.63284 6.05078 6.68753 6.22266 6.86331 6.3125C7.01175 6.39062 7.11331 6.39062 7.25784 6.31641C7.44534 6.21875 7.49222 6.07812 7.49222 5.61328V5.20312H10.1875H12.8828V5.65234C12.8828 6.15234 12.918 6.25391 13.1172 6.33594C13.2852 6.40625 13.4844 6.35547 13.6016 6.21484C13.6993 6.10156 13.7032 6.07031 13.7032 5.64844V5.20312H14.543C15 5.20312 15.4649 5.22266 15.5743 5.24609C15.9453 5.32422 16.2891 5.63281 16.4336 6.01562C16.4649 6.10156 16.4922 6.40234 16.5039 6.75391L16.5274 7.35156H10.1914H3.85941V6.76562C3.85941 6.27344 3.87113 6.14844 3.94144 5.96484C4.06644 5.625 4.41019 5.32812 4.77738 5.23828C4.84378 5.22266 5.28519 5.21094 5.76566 5.20703L6.63284 5.20312V5.59375Z" fill="#075EF5"/>
<path d="M6.39453 11.6836C6.30469 11.7734 6.28125 11.832 6.28125 11.9609C6.28125 12.1641 6.33203 12.2578 6.47656 12.332C6.57422 12.3828 7.01172 12.3906 9.77734 12.3906C12.543 12.3906 12.9805 12.3828 13.0781 12.332C13.2227 12.2578 13.2734 12.1641 13.2734 11.9609C13.2734 11.832 13.25 11.7734 13.1602 11.6836L13.0469 11.5703H9.77734H6.50781L6.39453 11.6836Z" fill="white"/>
<path d="M6.46875 14.2109C6.32812 14.2852 6.28125 14.3789 6.28125 14.5781C6.28125 14.707 6.30469 14.7656 6.39453 14.8555L6.50781 14.9688H8.53516C10.5391 14.9688 10.5625 14.9688 10.6523 14.8867C10.8516 14.6992 10.8516 14.418 10.6523 14.25L10.5312 14.1484H8.55469C6.88281 14.1523 6.55859 14.1602 6.46875 14.2109Z" fill="white"/>
<path d="M18.4374 16.0742C18.3905 16.1016 17.8671 16.5859 17.2734 17.1523C16.6796 17.7188 16.1445 18.2266 16.078 18.2813L15.9648 18.3789L15.3085 17.7266C14.6601 17.082 14.6523 17.0781 14.4804 17.0781C14.2773 17.0781 14.164 17.1484 14.0937 17.3086C13.9882 17.5625 14.0351 17.6289 14.9452 18.5352L15.7968 19.3828H15.9843C16.164 19.3828 16.1757 19.375 16.5468 19.0195C16.7538 18.8203 17.3827 18.2188 17.9413 17.6875C19.0468 16.6328 19.1171 16.543 19.0155 16.2969C18.9218 16.0703 18.6405 15.9609 18.4374 16.0742Z" fill="#075EF5"/>
</svg>
