<svg width="24" height="24" viewBox="0 0 24 24" fill="none" xmlns="http://www.w3.org/2000/svg">
<path d="M1.81636 11.8359L11.4703 2.18907C11.5398 2.11942 11.6223 2.06417 11.7132 2.02647C11.8041 1.98877 11.9016 1.96936 12 1.96936C12.0983 1.96936 12.1958 1.98877 12.2867 2.02647C12.3776 2.06417 12.4601 2.11942 12.5296 2.18907L22.1835 11.8359M1.81636 11.8359C1.53511 12.1172 1.37573 12.4992 1.37573 12.8977C1.37573 13.725 2.04839 14.3977 2.87573 14.3977H3.14292H3.89292V15.1477V21.2813C3.89292 21.6961 4.22808 22.0313 4.64292 22.0313H9.74995V21.2813M1.81636 11.8359L2.34649 12.3665C2.20512 12.5079 2.12573 12.6995 2.12573 12.8977C2.12573 13.3108 2.4626 13.6477 2.87573 13.6477H3.89292H4.64292V14.3977V21.2813H9.74995M1.81636 11.8359L2.34669 12.3663L12 2.72004M9.74995 21.2813H10.5V17.5313V16.7813H11.25H12.375H13.125V17.5313V21.2813H13.875M9.74995 21.2813V16.7813V16.0313H10.5H13.125H13.875V16.7813V21.2813M13.875 21.2813V22.0313H19.357C19.7718 22.0313 20.107 21.6961 20.107 21.2813V15.1477V14.3977H20.857H21.1242C21.5226 14.3977 21.9046 14.2406 22.1859 13.957C22.7695 13.3711 22.7695 12.4219 22.1835 11.8359M13.875 21.2813H19.357V14.3977V13.6477H20.107H21.1242C21.3251 13.6477 21.5147 13.5687 21.6534 13.4289L21.6545 13.4278C21.9464 13.1347 21.9464 12.6595 21.6532 12.3663M22.1835 11.8359L21.6532 12.3663M22.1835 11.8359L21.6534 12.3665L21.6532 12.3663M21.6532 12.3663L12 2.72004M12 2.72004L11.9995 2.71959L11.9988 2.71888L11.9993 2.71924L11.9998 2.71932L12 2.71936L12.0001 2.71932L12.0006 2.71924L12.0011 2.71888L12.0004 2.71959L12 2.72004Z" fill="#407BFF" stroke="#407BFF" stroke-width="1.5"/>
</svg>
