<svg width="19" height="19" viewBox="0 0 19 19" fill="none" xmlns="http://www.w3.org/2000/svg">
<g clip-path="url(#clip0_1_4167)">
<path d="M17.8125 9.5C17.8125 14.0909 14.0909 17.8125 9.5 17.8125C4.90913 17.8125 1.1875 14.0909 1.1875 9.5C1.1875 4.90913 4.90913 1.1875 9.5 1.1875C14.0909 1.1875 17.8125 4.90913 17.8125 9.5ZM19 9.5C19 4.25363 14.7464 0 9.5 0C4.25363 0 0 4.25363 0 9.5C0 14.7464 4.25363 19 9.5 19C14.7464 19 19 14.7464 19 9.5ZM11.2812 8.3125C11.2812 8.62745 11.1561 8.92949 10.9334 9.15219C10.7107 9.37489 10.4087 9.5 10.0938 9.5H8.3125L8.90625 10.0938V6.53125L8.3125 7.125H10.0938C10.4087 7.125 10.7107 7.25011 10.9334 7.47281C11.1561 7.69551 11.2812 7.99756 11.2812 8.3125ZM12.4688 8.3125C12.4688 7.68261 12.2185 7.07852 11.7731 6.63312C11.3277 6.18772 10.7236 5.9375 10.0938 5.9375H8.3125C8.15503 5.9375 8.00401 6.00006 7.89266 6.11141C7.78131 6.22275 7.71875 6.37378 7.71875 6.53125V10.0938C7.71875 10.4215 7.98475 10.6875 8.3125 10.6875H10.0938C10.7236 10.6875 11.3277 10.4373 11.7731 9.99188C12.2185 9.54648 12.4688 8.94239 12.4688 8.3125ZM8.90625 13.6562V10.0938C8.90625 9.93628 8.84369 9.78526 8.73234 9.67391C8.62099 9.56256 8.46997 9.5 8.3125 9.5C8.15503 9.5 8.00401 9.56256 7.89266 9.67391C7.78131 9.78526 7.71875 9.93628 7.71875 10.0938V13.6562C7.71875 13.8137 7.78131 13.9647 7.89266 14.0761C8.00401 14.1874 8.15503 14.25 8.3125 14.25C8.46997 14.25 8.62099 14.1874 8.73234 14.0761C8.84369 13.9647 8.90625 13.8137 8.90625 13.6562Z" fill="black" fill-opacity="0.7"/>
</g>
<defs>
<clipPath id="clip0_1_4167">
<rect width="19" height="19" fill="white"/>
</clipPath>
</defs>
</svg>
