<svg width="16" height="16" viewBox="0 0 16 16" fill="none" xmlns="http://www.w3.org/2000/svg">
<path d="M3.19438 1.21838C2.81678 1.27047 2.44959 1.52828 2.28032 1.85901C2.16574 2.07776 2.16574 2.05432 2.16574 4.6012V7.02568L2.0173 7.05693C1.8298 7.09338 1.62407 7.21057 1.5173 7.33818C1.2673 7.64026 1.27251 8.16109 1.52771 8.43974C1.58761 8.50484 1.58761 8.51005 1.60063 9.44234C1.61365 10.4215 1.62928 10.5908 1.74907 10.9892C1.93136 11.6012 2.31678 12.1923 2.80115 12.6038L2.90271 12.6897L2.66053 13.1793C2.44438 13.6194 2.42094 13.6793 2.43657 13.7653C2.47303 13.958 2.66313 14.0543 2.83761 13.9684C2.92355 13.9267 2.9574 13.8746 3.16834 13.4606L3.40271 13.0022L3.49386 13.0491C3.7673 13.1976 4.2699 13.3538 4.65792 13.4111C4.91834 13.4502 11.0798 13.4502 11.3402 13.4111C11.7282 13.3538 12.2308 13.1976 12.5043 13.0491L12.5954 13.0022L12.8298 13.4606C13.0407 13.8746 13.0746 13.9267 13.1605 13.9684C13.335 14.0543 13.5251 13.958 13.5616 13.7653C13.5772 13.6793 13.5538 13.6194 13.335 13.1767L13.0928 12.6845L13.21 12.5882C13.6918 12.1793 14.059 11.6168 14.2465 10.9944C14.3689 10.5934 14.3845 10.4267 14.3975 9.44234L14.4105 8.50484L14.4782 8.42672C14.6032 8.27828 14.6657 8.1038 14.6657 7.90068C14.6657 7.5439 14.5069 7.28349 14.2022 7.13245L14.0277 7.04651L8.38448 7.0387L2.73865 7.03349L2.74386 4.61422L2.75167 2.19495L2.8298 2.08297C3.02251 1.80693 3.20219 1.76266 4.04855 1.77828C4.67615 1.7887 4.75428 1.80432 4.91053 1.95016C4.99646 2.03088 5.0798 2.20016 5.0824 2.29391C5.0824 2.34859 5.06157 2.36682 4.9574 2.40328C4.54074 2.55172 4.19959 2.94234 4.11886 3.35901C4.07719 3.57776 4.08501 4.28349 4.12928 4.39026C4.19959 4.55953 4.2048 4.55953 5.38448 4.55953H6.44178L6.53032 4.47099L6.61886 4.38245V3.87463C6.61886 3.44755 6.61105 3.34078 6.56938 3.20797C6.50428 2.99963 6.38709 2.81995 6.2074 2.65588C6.07198 2.53349 5.79334 2.37203 5.71521 2.37203C5.69698 2.37203 5.67615 2.33036 5.66834 2.28088C5.66053 2.23141 5.65011 2.15068 5.6423 2.1038C5.61886 1.94755 5.47823 1.69495 5.3298 1.54911C5.16053 1.37984 4.92094 1.26005 4.68657 1.2262C4.52771 1.20276 3.35063 1.19755 3.19438 1.21838ZM5.54334 2.93193C5.69959 2.9788 5.8949 3.14286 5.97303 3.29391C6.0199 3.37984 6.03292 3.45797 6.04073 3.69234L6.05115 3.98661H5.35844H4.66574V3.78349C4.66834 3.67411 4.67876 3.53088 4.68917 3.46838C4.73344 3.24963 4.94438 3.02828 5.19178 2.94234C5.36105 2.88245 5.37928 2.88245 5.54334 2.93193ZM13.9652 7.6663C14.1084 7.76265 14.1293 7.92932 14.0173 8.05432L13.9418 8.14026H8.0173H2.09021L2.0173 8.08557C1.92876 8.02047 1.8923 7.92411 1.91574 7.83036C1.93657 7.74443 2.04334 7.64026 2.12146 7.62463C2.15271 7.61943 4.81678 7.61422 8.03813 7.61682C13.5902 7.61943 13.9001 7.62203 13.9652 7.6663ZM13.8246 9.51265C13.8116 10.1741 13.8012 10.3434 13.7543 10.5595C13.6397 11.096 13.4131 11.5283 13.0329 11.9293C12.5694 12.4163 11.9939 12.7158 11.2985 12.8278C10.9418 12.8851 5.05636 12.8851 4.69959 12.8278C4.00428 12.7158 3.42876 12.4163 2.96521 11.9293C2.58501 11.5283 2.35844 11.096 2.24386 10.5595C2.19699 10.3434 2.18657 10.1741 2.17355 9.51265L2.15792 8.7262H7.99907H13.8402L13.8246 9.51265Z" fill="black" fill-opacity="0.7"/>
</svg>
