<svg width="20" height="20" viewBox="0 0 20 20" fill="none" xmlns="http://www.w3.org/2000/svg">
<path d="M10 5.3667V8.1417" stroke="black" stroke-miterlimit="10" stroke-linecap="round"/>
<path d="M10.0167 1.66675C6.95004 1.66675 4.4667 4.15008 4.4667 7.21675V8.96675C4.4667 9.53341 4.23337 10.3834 3.9417 10.8667L2.88337 12.6334C2.23337 13.7251 2.68337 14.9417 3.88337 15.3417C7.8667 16.6667 12.175 16.6667 16.1584 15.3417C17.2834 14.9667 17.7667 13.6501 17.1584 12.6334L16.1 10.8667C15.8084 10.3834 15.575 9.52508 15.575 8.96675V7.21675C15.5667 4.16675 13.0667 1.66675 10.0167 1.66675Z" stroke="black" stroke-miterlimit="10" stroke-linecap="round"/>
<path d="M12.775 15.6833C12.775 17.2083 11.525 18.4583 9.99998 18.4583C9.24164 18.4583 8.54164 18.1417 8.04164 17.6417C7.54164 17.1417 7.22498 16.4417 7.22498 15.6833" stroke="black" stroke-miterlimit="10"/>
</svg>
