<svg width="10" height="14" viewBox="0 0 10 14" fill="none" xmlns="http://www.w3.org/2000/svg">
<path d="M4.17516 0.0404255C2.02554 0.374083 0.365457 2.04784 0.0400044 4.20293C-0.0146935 4.553 -0.0119586 5.28321 0.0400044 5.65516C0.157605 6.45101 0.422889 7.24687 0.901495 8.21502C1.44027 9.30898 1.99545 10.1841 3.47229 12.2627C3.81416 12.744 4.21072 13.3101 4.35566 13.5207C4.50335 13.7368 4.65377 13.9255 4.70026 13.9528C4.80419 14.0157 5.03939 14.0157 5.14331 13.9528C5.18981 13.9255 5.34023 13.7368 5.48791 13.5207C5.63286 13.3101 6.02942 12.744 6.37128 12.2627C7.84812 10.1841 8.40331 9.30898 8.94208 8.21502C9.42069 7.24413 9.68323 6.46195 9.80083 5.65516C9.85553 5.28048 9.85827 4.55573 9.80357 4.19746C9.47812 2.03143 7.8071 0.363143 5.63833 0.0376912C5.30741 -0.0142721 4.50335 -0.0115368 4.17516 0.0404255ZM5.55081 0.885507C7.20269 1.13165 8.55646 2.42252 8.9284 4.09901C8.95575 4.22755 8.98037 4.4901 8.98857 4.7964C8.99951 5.21758 8.99404 5.33791 8.94481 5.63055C8.79439 6.51939 8.40057 7.50942 7.73326 8.66628C7.26012 9.48948 6.70494 10.3209 5.49885 12.0165C5.20895 12.4213 4.96008 12.7741 4.9464 12.796C4.92452 12.8315 4.91905 12.8315 4.89717 12.796C4.8835 12.7741 4.63462 12.4213 4.34472 12.0165C3.13864 10.3209 2.58345 9.48948 2.11032 8.66628C1.443 7.50942 1.04918 6.51939 0.898761 5.63055C0.849533 5.33791 0.844063 5.21758 0.855002 4.7964C0.863207 4.4901 0.887821 4.22755 0.91517 4.09901C1.18866 2.86557 1.99819 1.82084 3.10308 1.26839C3.88253 0.880038 4.68112 0.756968 5.55081 0.885507Z" fill="black" fill-opacity="0.7"/>
<path d="M4.30096 2.52683C3.42853 2.75109 2.74754 3.43755 2.52602 4.30998C2.43303 4.67919 2.43303 5.16053 2.52602 5.52974C2.75028 6.40764 3.434 7.09136 4.3119 7.31562C4.68111 7.40861 5.16245 7.40861 5.53166 7.31562C6.40956 7.09136 7.09329 6.40764 7.31755 5.52974C7.41053 5.16053 7.41053 4.67919 7.31755 4.30998C7.09329 3.42934 6.4123 2.74835 5.53166 2.52409C5.16519 2.43111 4.6647 2.43384 4.30096 2.52683ZM5.40039 3.37464C5.92002 3.53327 6.35213 3.98726 6.49434 4.5233C6.54631 4.73115 6.54631 5.10857 6.49434 5.31642C6.39315 5.6993 6.12787 6.06304 5.78874 6.2873C5.39492 6.54438 4.86708 6.61276 4.42403 6.4596C4.13687 6.36115 3.92901 6.22167 3.7239 5.99741C3.43947 5.68836 3.30819 5.34377 3.30819 4.90345C3.30819 3.97905 4.11225 3.23516 5.04485 3.3008C5.12143 3.30627 5.28005 3.33909 5.40039 3.37464Z" fill="black" fill-opacity="0.7"/>
</svg>
