<svg width="16" height="16" viewBox="0 0 16 16" fill="none" xmlns="http://www.w3.org/2000/svg">
<path d="M2 2.74995C1.7625 2.98745 1.75 3.16245 1.75 5.37495C1.75 7.66245 1.7375 7.74995 1.5 7.74995C1.3625 7.74995 1.1375 7.86245 1 7.99995C0.7875 8.21245 0.75 8.41245 0.75 9.49995C0.75 10.6625 0.7375 10.75 0.5 10.75C0.275 10.75 0.25 10.8375 0.25 11.5C0.25 12.1625 0.275 12.25 0.5 12.25C0.7125 12.25 0.75 12.3375 0.75 12.8875V13.5125L1.4 13.475L2.0625 13.4375L2.175 12.8375L2.275 12.25H8H13.725L13.825 12.8375L13.9375 13.4375L14.6 13.475L15.25 13.5125V12.8875C15.25 12.3375 15.2875 12.25 15.5 12.25C15.725 12.25 15.75 12.1625 15.75 11.5C15.75 10.8375 15.725 10.75 15.5 10.75C15.2625 10.75 15.25 10.6625 15.25 9.49995C15.25 8.41245 15.2125 8.21245 15 7.99995C14.8625 7.86245 14.6375 7.74995 14.5 7.74995C14.2625 7.74995 14.25 7.66245 14.25 5.37495C14.25 3.16245 14.2375 2.98745 14 2.74995C13.7625 2.51245 13.5875 2.49995 8 2.49995C2.4125 2.49995 2.2375 2.51245 2 2.74995ZM13.5 3.24995C13.725 3.47495 13.75 3.66245 13.75 5.62495C13.75 7.66245 13.7375 7.74995 13.5 7.74995C13.275 7.74995 13.25 7.66245 13.25 6.99995C13.25 5.78745 13.175 5.74995 10.75 5.74995C8.325 5.74995 8.25 5.78745 8.25 6.99995C8.25 7.66245 8.225 7.74995 8 7.74995C7.775 7.74995 7.75 7.66245 7.75 6.99995C7.75 5.78745 7.675 5.74995 5.25 5.74995C2.825 5.74995 2.75 5.78745 2.75 6.99995C2.75 7.66245 2.725 7.74995 2.5 7.74995C2.2625 7.74995 2.25 7.66245 2.25 5.62495C2.25 3.66245 2.275 3.47495 2.5 3.24995C2.7375 3.01245 2.9125 2.99995 8 2.99995C13.0875 2.99995 13.2625 3.01245 13.5 3.24995ZM7 6.49995C7.1625 6.66245 7.25 6.91245 7.25 7.24995V7.74995H5.25H3.25V7.24995C3.25 6.37495 3.5 6.24995 5.25 6.24995C6.5875 6.24995 6.775 6.27495 7 6.49995ZM12.5 6.49995C12.6625 6.66245 12.75 6.91245 12.75 7.24995V7.74995H10.75H8.75V7.24995C8.75 6.37495 9 6.24995 10.75 6.24995C12.0875 6.24995 12.275 6.27495 12.5 6.49995ZM14.5 8.49995C14.7125 8.71245 14.75 8.91245 14.75 9.74995V10.75H8H1.25V9.74995C1.25 8.11245 0.6375 8.24995 8 8.24995C14.0875 8.24995 14.2625 8.26245 14.5 8.49995ZM15.25 11.5C15.25 11.75 15.1625 11.75 8 11.75C0.8375 11.75 0.75 11.75 0.75 11.5C0.75 11.25 0.8375 11.25 8 11.25C15.1625 11.25 15.25 11.25 15.25 11.5ZM1.575 12.45C1.5375 12.5625 1.5 12.725 1.5 12.825C1.5 12.925 1.45 13 1.375 13C1.3125 13 1.25 12.825 1.25 12.625C1.25 12.3625 1.3125 12.25 1.45 12.25C1.5875 12.25 1.625 12.3125 1.575 12.45ZM14.75 12.625C14.75 12.825 14.7 13 14.625 13C14.5625 13 14.5 12.925 14.5 12.825C14.5 12.725 14.4625 12.5625 14.425 12.45C14.375 12.3125 14.4125 12.25 14.55 12.25C14.6875 12.25 14.75 12.3625 14.75 12.625Z" fill="black" fill-opacity="0.7"/>
</svg>
