<svg width="24" height="24" viewBox="0 0 24 24" fill="none" xmlns="http://www.w3.org/2000/svg">
<path d="M14.8132 16.1133C13.3422 17.2565 11.491 17.7959 9.63649 17.6215C7.78198 17.4471 6.06363 16.5721 4.83132 15.1746C3.59901 13.7771 2.9454 11.9622 3.00358 10.0995C3.06175 8.23677 3.82734 6.46627 5.14446 5.14848C6.46157 3.83069 8.23118 3.06471 10.093 3.00651C11.9547 2.9483 13.7687 3.60224 15.1655 4.83518C16.5622 6.06812 17.4368 7.78735 17.6111 9.6428C17.7854 11.4983 17.2464 13.3504 16.1037 14.8222L21 19.7027L19.7004 21.0029L14.8224 16.1133H14.8132ZM10.3287 15.8202C11.0498 15.8202 11.7639 15.6781 12.4301 15.402C13.0964 15.1259 13.7017 14.7212 14.2116 14.2111C14.7215 13.7009 15.126 13.0953 15.402 12.4287C15.6779 11.7621 15.8199 11.0477 15.8199 10.3262C15.8199 9.60474 15.6779 8.89032 15.402 8.22376C15.126 7.55719 14.7215 6.95154 14.2116 6.44137C13.7017 5.93121 13.0964 5.52652 12.4301 5.25042C11.7639 4.97432 11.0498 4.83221 10.3287 4.83221C8.87236 4.83221 7.47565 5.41104 6.44585 6.44137C5.41604 7.4717 4.8375 8.86912 4.8375 10.3262C4.8375 11.7833 5.41604 13.1808 6.44585 14.2111C7.47565 15.2414 8.87236 15.8202 10.3287 15.8202Z" fill="black" fill-opacity="0.7"/>
</svg>
