<svg width="14" height="13" viewBox="0 0 14 13" fill="none" xmlns="http://www.w3.org/2000/svg">
<path d="M6.31381 0.35957C6.46845 -0.1199 7.14681 -0.119901 7.30144 0.359569L8.54566 4.21753C8.61491 4.43226 8.81499 4.57763 9.04061 4.57714L13.0942 4.56828C13.598 4.56717 13.8076 5.21234 13.3994 5.50757L10.1148 7.88306C9.93195 8.01528 9.85552 8.25048 9.92571 8.46491L11.1868 12.3174C11.3435 12.7962 10.7947 13.1949 10.3878 12.8979L7.11352 10.5081C6.93129 10.3751 6.68397 10.3751 6.50173 10.5081L3.22749 12.8979C2.82057 13.1949 2.27176 12.7962 2.42848 12.3174L3.68955 8.46491C3.75974 8.25048 3.68331 8.01528 3.50049 7.88306L0.215834 5.50757C-0.192385 5.21234 0.0172409 4.56717 0.521028 4.56828L4.57465 4.57714C4.80027 4.57763 5.00035 4.43226 5.0696 4.21753L6.31381 0.35957Z" fill="black"/>
</svg>
