<svg width="15" height="20" viewBox="0 0 15 20" fill="none" xmlns="http://www.w3.org/2000/svg">
<path d="M5.96455 0.0576284C2.89364 0.534284 0.522084 2.92538 0.0571495 6.0041C-0.0209908 6.5042 -0.0170838 7.54737 0.0571495 8.07873C0.225151 9.21567 0.604131 10.3526 1.28786 11.7357C2.05754 13.2985 2.85066 14.5487 4.96045 17.5181C5.44883 18.2057 6.01534 19.0145 6.22242 19.3153C6.43339 19.6239 6.64828 19.8935 6.7147 19.9326C6.86317 20.0225 7.19917 20.0225 7.34764 19.9326C7.41406 19.8935 7.62894 19.6239 7.83992 19.3153C8.04699 19.0145 8.61351 18.2057 9.10188 17.5181C11.2117 14.5487 12.0048 13.2985 12.7745 11.7357C13.4582 10.3487 13.8333 9.2313 14.0013 8.07873C14.0794 7.54347 14.0833 6.50811 14.0052 5.99629C13.5403 2.90193 11.1531 0.518656 8.05481 0.0537214C7.58206 -0.0205118 6.43339 -0.0166048 5.96455 0.0576284ZM7.92978 1.2649C10.2896 1.61653 12.2236 3.46064 12.7549 5.85564C12.794 6.03927 12.8292 6.41434 12.8409 6.85192C12.8565 7.4536 12.8487 7.62551 12.7784 8.04356C12.5635 9.31334 12.0009 10.7277 11.0476 12.3803C10.3717 13.5564 9.57854 14.7441 7.85555 17.1664C7.4414 17.7447 7.08587 18.2487 7.06633 18.2799C7.03507 18.3307 7.02726 18.3307 6.996 18.2799C6.97647 18.2487 6.62093 17.7447 6.20679 17.1664C4.4838 14.7441 3.69067 13.5564 3.01476 12.3803C2.06145 10.7277 1.49884 9.31334 1.28395 8.04356C1.21363 7.62551 1.20581 7.4536 1.22144 6.85192C1.23316 6.41434 1.26832 6.03927 1.30739 5.85564C1.69809 4.09357 2.85457 2.60109 4.433 1.81188C5.5465 1.25708 6.68735 1.08127 7.92978 1.2649Z" fill="black" fill-opacity="0.8"/>
<path d="M6.14427 3.6091C4.89793 3.92948 3.92508 4.91014 3.60861 6.15648C3.47578 6.68392 3.47578 7.37156 3.60861 7.899C3.92899 9.15315 4.90574 10.1299 6.15989 10.4503C6.68734 10.5831 7.37498 10.5831 7.90242 10.4503C9.15657 10.1299 10.1333 9.15315 10.4537 7.899C10.5865 7.37156 10.5865 6.68392 10.4537 6.15648C10.1333 4.89842 9.16048 3.92557 7.90242 3.6052C7.37888 3.47236 6.6639 3.47626 6.14427 3.6091ZM7.71489 4.82028C8.45722 5.04688 9.07453 5.69545 9.27769 6.46122C9.35192 6.75816 9.35192 7.29732 9.27769 7.59426C9.13313 8.14124 8.75415 8.66087 8.26968 8.98125C7.70707 9.34851 6.95302 9.44618 6.32008 9.22739C5.90985 9.08674 5.61291 8.88748 5.31989 8.5671C4.91356 8.12561 4.72602 7.63333 4.72602 7.0043C4.72602 5.68373 5.87468 4.62102 7.20697 4.71479C7.31637 4.7226 7.54298 4.76949 7.71489 4.82028Z" fill="black" fill-opacity="0.8"/>
</svg>
